<?xml version="1.0" standalone="no"?>
<!DOCTYPE svg PUBLIC "-//W3C//DTD SVG 20010904//EN"
 "http://www.w3.org/TR/2001/REC-SVG-20010904/DTD/svg10.dtd">
<svg version="1.0" xmlns="http://www.w3.org/2000/svg"
 width="1392.000000pt" height="1392.000000pt" viewBox="0 0 1392.000000 1392.000000"
 preserveAspectRatio="xMidYMid meet">
<metadata>
Created by potrace 1.14, written by Peter Selinger 2001-2017
</metadata>
<g transform="translate(0.000000,1392.000000) scale(0.100000,-0.100000)"
fill="#000000" stroke="none">
<path d="M5860 10428 c-83 -8 -122 -15 -157 -29 -15 -6 -29 -10 -31 -10 -7 3
-59 -13 -69 -22 -7 -5 -13 -7 -13 -4 0 3 -27 -8 -60 -24 -33 -16 -63 -29 -66
-29 -15 0 -180 -120 -244 -177 -14 -13 -28 -23 -32 -23 -5 0 -8 -4 -8 -8 0 -5
-21 -31 -48 -58 -26 -27 -65 -71 -87 -99 -22 -27 -42 -52 -45 -55 -5 -5 -99
-150 -127 -195 -35 -58 -183 -368 -183 -384 0 -5 -8 -26 -17 -47 -9 -22 -18
-43 -19 -49 -1 -5 -13 -46 -27 -90 -52 -164 -97 -355 -113 -480 -3 -27 -8 -52
-9 -55 -5 -7 -18 -120 -32 -265 -15 -155 -9 -589 11 -740 2 -16 7 -57 11 -90
4 -32 9 -68 11 -80 7 -36 15 -89 17 -115 l2 -25 -990 2 c-545 1 -1030 2 -1080
3 -49 0 -115 0 -145 1 -30 0 -57 3 -60 5 -3 3 -6 621 -6 1372 -1 752 -5 1383
-8 1402 -8 37 -50 99 -69 101 -7 1 -115 3 -242 4 -272 2 -285 -1 -317 -71
l-20 -47 0 -3046 c0 -2742 2 -3051 16 -3084 19 -47 36 -64 72 -73 42 -11 454
-11 487 -1 33 11 64 52 73 98 4 19 7 643 7 1386 l1 1352 50 -1 c28 0 56 0 61
2 6 1 12 2 15 1 3 -1 556 -4 1230 -7 1151 -4 1227 -3 1260 14 80 40 127 169
119 327 -1 11 -6 40 -11 65 -5 25 -11 52 -13 60 -2 8 -12 53 -23 100 -12 47
-24 105 -28 130 -9 50 -11 59 -14 63 -1 1 -3 13 -4 27 -2 14 -6 48 -10 75 -3
28 -8 66 -11 85 -14 110 -19 217 -19 395 0 251 14 392 59 615 3 14 7 34 9 45
2 11 11 45 20 76 9 31 18 65 20 75 6 30 71 205 97 260 12 27 24 55 25 62 1 8
8 21 16 30 7 10 22 35 33 57 76 155 235 344 367 438 82 58 118 78 203 110 93
35 132 42 245 41 144 -1 228 -23 360 -93 105 -56 279 -207 339 -294 8 -12 18
-24 22 -27 3 -3 34 -48 67 -100 96 -150 110 -168 134 -184 30 -19 72 -27 111
-19 28 6 107 75 107 94 0 12 62 113 72 117 4 2 8 8 8 13 0 29 176 233 266 309
89 75 209 141 314 172 99 30 271 32 375 5 6 -1 16 -6 23 -10 6 -5 12 -6 12 -3
0 10 112 -43 185 -87 91 -55 315 -277 315 -312 0 -5 9 -18 19 -29 59 -64 197
-358 245 -521 23 -78 23 -78 26 -90 1 -5 8 -30 15 -55 12 -39 19 -74 39 -180
3 -14 7 -34 9 -45 8 -34 25 -178 32 -270 6 -70 29 -157 53 -194 81 -127 224
-126 287 2 14 29 28 64 31 77 14 69 -4 308 -41 530 -4 19 -8 45 -10 57 -1 11
-6 29 -9 40 -3 10 -8 34 -11 53 -3 19 -10 51 -15 70 -5 19 -11 46 -14 60 -2
14 -5 25 -6 25 -1 0 -3 7 -5 17 -12 65 -101 334 -140 426 -37 87 -140 291
-171 339 -19 28 -34 56 -34 62 0 6 -4 11 -8 11 -5 0 -15 12 -23 28 -8 15 -24
38 -36 52 -13 14 -23 28 -23 31 0 3 -8 15 -17 26 -10 11 -34 39 -53 62 -148
178 -371 337 -560 401 -281 94 -616 44 -863 -129 -32 -23 -60 -41 -63 -41 -7
0 -72 -58 -161 -145 -68 -66 -160 -174 -195 -229 -5 -7 -17 2 -35 24 -15 18
-55 66 -88 104 -272 321 -629 489 -965 454z"/>
<path d="M11752 10159 c-27 -10 -62 -62 -68 -101 -3 -18 -6 -649 -7 -1403 l-2
-1370 -160 -2 c-88 -2 -674 -5 -1302 -7 -628 -2 -1152 -8 -1164 -11 -13 -4
-27 -11 -33 -16 -6 -5 -21 -18 -33 -28 -21 -17 -73 -114 -73 -136 0 -41 -198
-585 -220 -605 -3 -3 -6 -12 -8 -20 -13 -59 -203 -428 -335 -650 -93 -156
-283 -441 -361 -541 -12 -15 -30 -39 -41 -54 -11 -16 -26 -34 -32 -41 -7 -7
-13 -15 -13 -18 0 -5 -19 -30 -45 -60 -6 -6 -35 -42 -65 -81 -30 -38 -59 -75
-65 -81 -5 -6 -26 -30 -45 -54 -19 -24 -39 -48 -45 -54 -5 -6 -37 -43 -70 -81
-33 -39 -64 -75 -70 -81 -5 -6 -41 -46 -80 -89 -149 -167 -424 -448 -456 -465
-27 -15 -97 40 -236 186 -304 322 -318 337 -408 439 -43 50 -81 92 -85 95 -3
3 -21 25 -40 50 -19 25 -40 50 -46 55 -33 30 -265 335 -354 465 -19 28 -39 57
-45 64 -14 17 -34 48 -42 66 -4 8 -10 17 -13 20 -21 15 -263 420 -320 535 -14
28 -28 52 -32 53 -5 2 -8 9 -8 15 0 20 -61 111 -86 130 -120 89 -262 -89 -253
-315 1 -35 6 -76 11 -93 5 -16 10 -34 12 -40 7 -29 134 -264 223 -412 40 -68
73 -127 73 -133 0 -5 3 -10 8 -10 4 0 23 -27 42 -60 19 -33 38 -60 43 -60 4 0
7 -5 7 -10 0 -19 198 -299 335 -475 85 -109 97 -124 113 -140 6 -8 12 -18 12
-24 0 -6 4 -11 8 -11 4 0 24 -21 44 -47 20 -27 54 -67 75 -90 21 -23 48 -55
60 -70 13 -15 37 -44 54 -63 17 -19 61 -69 97 -110 140 -157 539 -549 601
-589 133 -85 226 -62 387 97 235 234 480 499 676 733 71 84 95 113 138 169 19
25 37 47 40 50 31 29 336 452 421 584 32 50 62 96 66 101 5 6 38 59 73 120 85
144 86 144 108 185 11 19 38 69 61 110 68 120 210 415 265 550 15 36 31 74 35
85 32 73 43 103 81 215 24 69 46 128 50 133 3 4 508 9 1121 11 612 2 1119 5
1124 6 6 1 15 2 20 0 6 -1 53 -2 105 -3 l95 -2 1 -1350 c1 -742 4 -1362 7
-1377 10 -49 32 -83 62 -97 23 -11 74 -14 225 -13 107 1 204 2 215 2 66 0 78
2 95 18 11 10 27 36 36 57 15 36 16 282 16 3091 l0 3051 -21 41 c-12 23 -31
47 -44 54 -24 14 -480 20 -515 7z"/>
<path d="M942 9620 c-90 -5 -99 -11 -128 -77 -15 -35 -22 -151 -10 -171 4 -6
3 -12 -2 -12 -7 0 -8 -41 -1 -76 1 -5 0 -13 -1 -19 -5 -24 -2 -184 4 -193 3
-5 3 -12 -1 -16 -10 -9 -9 -186 0 -186 5 0 5 -5 1 -11 -9 -16 -10 -139 -1
-139 5 0 5 -5 1 -11 -8 -14 -9 -103 -1 -116 4 -6 3 -13 0 -17 -10 -10 -10
-138 0 -158 4 -10 4 -18 -1 -18 -7 0 -8 -42 -1 -76 1 -5 1 -11 -1 -14 -6 -17
-4 -260 3 -260 5 0 5 -5 1 -11 -9 -16 -11 -110 -1 -116 4 -2 5 -9 1 -15 -9
-15 -10 -178 -1 -178 5 0 5 -5 1 -11 -9 -16 -11 -110 -1 -116 4 -2 4 -9 1 -15
-8 -13 -9 -102 -1 -115 4 -6 4 -13 0 -17 -10 -9 -9 -186 0 -186 5 0 5 -5 1
-11 -9 -16 -10 -139 -1 -139 5 0 5 -5 1 -11 -8 -14 -9 -103 0 -117 3 -6 3 -13
-1 -15 -9 -6 -9 -129 0 -144 4 -6 4 -13 0 -17 -10 -9 -9 -186 0 -186 5 0 5 -5
1 -11 -9 -16 -10 -139 -1 -139 5 0 5 -5 1 -11 -8 -14 -9 -103 -1 -116 4 -6 4
-13 0 -17 -9 -9 -9 -206 0 -206 5 0 5 -5 1 -11 -9 -16 -11 -110 -1 -116 4 -2
5 -9 1 -15 -9 -15 -10 -178 -1 -178 5 0 5 -5 1 -11 -9 -16 -11 -110 -1 -116 4
-2 4 -9 1 -15 -9 -14 -10 -109 -1 -131 3 -9 3 -17 -1 -17 -7 0 -8 -43 -1 -76
1 -5 0 -13 -1 -19 -5 -24 -2 -184 4 -193 3 -5 3 -12 -1 -16 -9 -9 -9 -206 0
-206 5 0 5 -5 1 -11 -9 -16 -10 -119 -1 -119 5 0 5 -5 1 -11 -8 -14 -9 -103 0
-117 3 -6 3 -13 -1 -15 -9 -6 -8 -196 1 -247 11 -55 28 -87 56 -103 20 -12 72
-15 267 -15 234 -1 242 0 267 21 60 53 56 -142 56 2599 0 1459 -4 2516 -9
2534 -19 67 -76 115 -111 94 -7 -5 -19 -6 -26 -3 -19 7 -262 9 -362 3z"/>
<path d="M12564 9618 c-35 -9 -55 -27 -73 -68 -14 -32 -16 -285 -17 -2545 0
-1380 3 -2524 8 -2541 4 -18 20 -45 36 -61 l27 -30 252 -1 252 -2 26 26 c15
15 31 38 37 53 15 34 18 5018 4 5073 -18 68 -45 91 -115 98 -34 3 -67 3 -73
-1 -7 -4 -20 -3 -31 2 -12 7 -22 7 -31 0 -7 -6 -15 -8 -18 -5 -9 8 -255 10
-284 2z"/>
<path d="M70 9014 c-8 -3 -26 -21 -40 -41 l-25 -37 -3 -1910 c-2 -1711 -1
-1915 13 -1957 26 -78 29 -79 307 -79 134 0 253 3 265 6 14 4 31 24 45 53 l23
46 0 1895 c1 1632 -1 1902 -13 1942 -26 85 -20 83 -306 85 -138 0 -258 -1
-266 -3z"/>
<path d="M13340 9013 c-15 -6 -59 -51 -61 -62 0 -3 -3 -17 -6 -31 -8 -37 -8
-3810 0 -3842 4 -14 19 -40 33 -57 l26 -31 258 0 257 0 27 26 c14 15 30 43 36
63 14 51 14 3820 -1 3858 -6 15 -22 40 -36 55 l-26 27 -246 0 c-135 0 -253 -3
-261 -6z"/>
</g>
</svg>
